PathFileType	4	(X/Y/Z)	Walk2.trc
DataRate	CameraRate	NumFrames	NumMarkers	Units	OrigDataRate	OrigDataStartFrame	OrigNumFrames
200.000000	200.000000	6	59	mm	200.000000	185	381
Frame#	Times		LFHD		RFHD		LBHD		RBHD		C7		T10		CLAV		STRN		RBack		LASI		RASI		LPSI		RPSI		RACR1		RUA1		RElbow		RElbowM		RFA1		RWRR		RWRU		RCAR		LACR1		LUA1		LElbow		LElbowM		LFA1		LWRR		LWRU		LCAR		RTH1		RTH3		RTH2		RTH4		RLFC		RTB1		RTB3		RTB2		RTB4		RLMAL		RMMAL		RCAL		RMT1		RMT5		RToe		LTH1		LTH3		LTH2		LTH4		LLFC		LTB1		LTB3		LTB2		LTB4		LLMAL		LCAL		LMT5		LToe		LMMAL		LMT1
			X1	Y1	Z1	X2	Y2	Z2	X3	Y3	Z3	X4	Y4	Z4	X5	Y5	Z5	X6	Y6	Z6	X7	Y7	Z7	X8	Y8	Z8	X9	Y9	Z9	X10	Y10	Z10	X11	Y11	Z11	X12	Y12	Z12	X13	Y13	Z13	X14	Y14	Z14	X15	Y15	Z15	X16	Y16	Z16	X17	Y17	Z17	X18	Y18	Z18	X19	Y19	Z19	X20	Y20	Z20	X21	Y21	Z21	X22	Y22	Z22	X23	Y23	Z23	X24	Y24	Z24	X25	Y25	Z25	X26	Y26	Z26	X27	Y27	Z27	X28	Y28	Z28	X29	Y29	Z29	X30	Y30	Z30	X31	Y31	Z31	X32	Y32	Z32	X33	Y33	Z33	X34	Y34	Z34	X35	Y35	Z35	X36	Y36	Z36	X37	Y37	Z37	X38	Y38	Z38	X39	Y39	Z39	X40	Y40	Z40	X41	Y41	Z41	X42	Y42	Z42	X43	Y43	Z43	X44	Y44	Z44	X45	Y45	Z45	X46	Y46	Z46	X47	Y47	Z47	X48	Y48	Z48	X49	Y49	Z49	X50	Y50	Z50	X51	Y51	Z51	X52	Y52	Z52	X53	Y53	Z53	X54	Y54	Z54	X55	Y55	Z55	X56	Y56	Z56	X57	Y57	Z57	X58	Y58	Z58	X59	Y59	Z59

185	0.925	-141.86	1444.4	-46.309	-152.12	1434.3	49.69	-264.15	1360.5	-77.411	-277.65	1354.9	54.804	-303.76	1273.2	-14.812	-389.31	1076.2	-1.1324	-161.45	1190	-5.7606	-110.61	1082.7	6.6089	-357.04	1155.4	103.38	-196.22	816.71	-153.93	-183.38	831.99	166.58	-447.44	858.87	-40.295	-439.75	852.62	64.583	-242.71	1223.6	168.85	-243.64	1084.8	254.91	-261.82	960.63	291.46	-312.63	929.38	219.66	-209.09	841.42	305.12	-196.01	739.62	275.52	-234.68	744.59	337.15	-190.31	685.67	331.35	-230.89	1212.7	-197.41	-204.14	1046.9	-263.06	-226.03	928.57	-280.08	-251.93	903.54	-213.66	-155.67	844.76	-310.55	-104.66	743.02	-292.9	-149.86	735.06	-335.74	-101.66	697.73	-341.07	-222.78	645.88	221.74	-152.59	492.98	176.36	-138.89	597.07	186.19	-189.32	567.83	202.51	-155.87	410.93	161.01	-121.45	303.37	116.35	-174.93	142.99	94.781	-190.23	230.38	152.27	-152.17	223.18	104.98	-238.87	88.31	123.54	-214.8	97.488	43.837	-291.84	69.713	69.973	-126.57	47.941	68.974	-162.59	37.552	150.02	-83.24	51.175	111.31	-264.19	647.92	-201.65	-274.05	481.38	-149.9	-215.89	571.22	-155.35	-269.04	563.95	-180.08	-260.25	387.53	-109.44	-257.59	288.42	-39.916	-305.59	124.85	-23.908	-303.85	205.51	-91.132	-286.03	205.31	-31.543	-370.72	59.597	-55.13	-415.84	47.867	-10.726	-292.82	19.643	-76.993	-196.69	28.29	-16.1	-348.96	74.679	23.213	-250.22	34.527	8.7721
186	0.93	-136.59	1444.1	-46.525	-146.89	1434.1	49.473	-258.84	1360.1	-77.631	-272.39	1354.6	54.573	-298.43	1272.9	-15.09	-384.02	1075.9	-1.3857	-156.19	1189.6	-5.8503	-105.43	1082.3	6.4536	-351.94	1155.1	103.07	-191.08	816.13	-153.74	-178.41	831.67	166.81	-442.46	858.94	-39.988	-434.53	852.4	64.845	-237.68	1223.3	168.67	-238.71	1084.6	254.85	-257.28	960.6	291.62	-307.97	929.27	219.82	-204.78	841.36	305.72	-191.71	739.46	276.32	-230.55	744.63	337.83	-186.27	685.62	332.29	-225.4	1212.2	-197.57	-198.72	1046.5	-263.33	-219.96	928.08	-280.21	-245.56	902.94	-213.75	-149.11	844.65	-310.77	-97.354	743.31	-293.05	-142.6	734.99	-335.79	-94.133	698.06	-341.19	-217.79	645.3	221.95	-147.44	492.74	175.62	-133.83	596.77	186.18	-184.27	567.4	202.28	-150.29	410.53	160.18	-112.57	304.09	115.72	-160.02	141.95	94.421	-178.64	228.74	151.7	-140.3	222.88	104.5	-221.9	84.939	123.15	-198.03	94.982	43.483	-274.08	64.409	69.482	-108.16	48.721	68.831	-143.9	37.023	149.85	-65.008	53.576	111.21	-260	647.53	-201.56	-270.82	481.02	-149.89	-212.13	570.52	-155.37	-265.33	563.58	-180.04	-257.66	386.99	-109.46	-255.86	287.84	-39.865	-304.97	124.61	-23.83	-302.58	205.25	-91.116	-284.89	204.96	-31.468	-370.54	59.806	-55.064	-415.73	48.302	-10.62	-292.84	19.671	-76.932	-196.51	28.154	-16.057	-348.72	74.812	23.327	-250.17	34.46	8.8153
187	0.935	-131.32	1443.8	-46.73	-141.65	1433.7	49.267	-253.53	1359.7	-77.837	-267.13	1354.2	54.357	-293.08	1272.5	-15.339	-378.73	1075.6	-1.6088	-150.92	1189.2	-5.9347	-100.23	1081.8	6.231	-346.81	1154.8	102.8	-185.92	815.51	-153.51	-173.38	831.3	167.04	-437.45	859.01	-39.646	-429.28	852.18	65.159	-232.63	1222.9	168.52	-233.77	1084.3	254.81	-252.7	960.53	291.8	-303.28	929.14	220.01	-200.42	841.28	306.34	-187.36	739.28	277.14	-226.36	744.63	338.51	-182.17	685.55	333.25	-219.9	1211.8	-197.72	-193.26	1046.1	-263.57	-213.91	927.59	-280.31	-239.22	902.33	-213.81	-142.59	844.51	-310.96	-90.097	743.57	-293.17	-135.38	734.9	-335.8	-86.66	698.35	-341.27	-212.83	644.67	222.2	-142.51	492.37	174.92	-128.87	596.31	186.21	-179.35	566.88	202.08	-144.96	410.01	159.34	-103.89	304.83	115.1	-145.18	141.12	94.074	-167.17	227.19	151.13	-128.57	222.7	104.03	-204.91	81.834	122.76	-181.26	92.743	43.134	-256.22	59.399	68.97	-89.856	49.814	68.682	-125.28	36.797	149.68	-46.954	56.26	111.11	-255.83	647.14	-201.46	-267.58	480.66	-149.87	-208.37	569.81	-155.41	-261.64	563.19	-179.99	-255.05	386.44	-109.47	-254.1	287.26	-39.827	-304.33	124.38	-23.758	-301.3	205	-91.104	-283.74	204.62	-31.398	-370.35	60.031	-54.991	-415.62	48.764	-10.503	-292.86	19.698	-76.865	-196.33	28.017	-16.021	-348.47	74.967	23.441	-250.11	34.397	8.8552
188	0.94	-126.04	1443.4	-46.923	-136.4	1433.4	49.076	-248.21	1359.3	-78.028	-261.85	1353.8	54.157	-287.73	1272.1	-15.559	-373.42	1075.2	-1.7992	-145.64	1188.8	-6.0128	-95.01	1081.3	5.9499	-341.66	1154.4	102.56	-180.74	814.87	-153.25	-168.27	830.89	167.27	-432.4	859.09	-39.274	-423.98	851.96	65.52	-227.56	1222.6	168.38	-228.82	1084.1	254.8	-248.07	960.44	291.99	-298.55	928.98	220.23	-196.01	841.17	306.98	-182.95	739.08	277.96	-222.11	744.62	339.21	-178.02	685.45	334.22	-214.42	1211.3	-197.85	-187.74	1045.7	-263.78	-207.88	927.08	-280.39	-232.9	901.72	-213.85	-136.11	844.35	-311.12	-82.89	743.8	-293.25	-128.22	734.79	-335.77	-79.244	698.6	-341.3	-207.91	644	222.46	-137.79	491.87	174.3	-123.99	595.7	186.29	-174.56	566.26	201.93	-139.88	409.38	158.5	-95.441	305.6	114.48	-130.45	140.52	93.735	-155.82	225.74	150.55	-117	222.63	103.56	-187.92	79.015	122.36	-164.53	90.791	42.784	-238.3	54.713	68.437	-71.714	51.223	68.522	-106.77	36.884	149.51	-29.118	59.227	110.99	-251.67	646.73	-201.36	-264.33	480.29	-149.85	-204.61	569.1	-155.46	-257.94	562.8	-179.94	-252.42	385.89	-109.49	-252.3	286.68	-39.801	-303.7	124.16	-23.693	-300.02	204.75	-91.097	-282.56	204.28	-31.336	-370.16	60.275	-54.911	-415.49	49.253	-10.377	-292.88	19.724	-76.792	-196.14	27.883	-15.993	-348.21	75.144	23.553	-250.04	34.338	8.8912
189	0.945	-120.76	1443	-47.1	-131.14	1433	48.899	-242.89	1358.8	-78.202	-256.57	1353.4	53.975	-282.37	1271.7	-15.748	-368.1	1074.8	-1.954	-140.35	1188.4	-6.0837	-89.769	1080.8	5.6204	-336.48	1154	102.36	-175.54	814.19	-152.98	-163.1	830.42	167.49	-427.32	859.18	-38.877	-418.65	851.75	65.923	-222.46	1222.2	168.27	-223.87	1083.8	254.81	-243.38	960.32	292.21	-293.78	928.81	220.49	-191.55	841.04	307.64	-178.48	738.85	278.8	-217.8	744.57	339.92	-173.81	685.33	335.19	-208.94	1210.8	-197.96	-182.18	1045.3	-263.95	-201.87	926.56	-280.44	-226.62	901.12	-213.87	-129.68	844.17	-311.26	-75.736	744.01	-293.29	-121.1	734.66	-335.71	-71.887	698.81	-341.29	-203.04	643.28	222.73	-133.29	491.24	173.74	-119.22	594.92	186.42	-169.89	565.56	201.83	-135.05	408.64	157.67	-87.212	306.38	113.88	-115.87	140.15	93.401	-144.61	224.42	149.97	-105.61	222.69	103.11	-170.98	76.497	121.95	-147.9	89.141	42.429	-220.38	50.373	67.883	-53.776	52.948	68.345	-88.416	37.286	149.33	-11.541	62.468	110.85	-247.51	646.31	-201.26	-261.07	479.92	-149.83	-200.84	568.38	-155.52	-254.24	562.4	-179.88	-249.76	385.34	-109.51	-250.46	286.11	-39.791	-303.06	123.97	-23.637	-298.73	204.5	-91.093	-281.35	203.95	-31.284	-369.97	60.539	-54.824	-415.35	49.773	-10.243	-292.91	19.748	-76.712	-195.96	27.752	-15.972	-347.95	75.343	23.661	-249.97	34.285	8.9233
190	0.95	-115.47	1442.6	-47.26	-125.87	1432.7	48.739	-237.57	1358.4	-78.358	-251.28	1353	53.812	-277	1271.3	-15.905	-362.77	1074.4	-2.0705	-135.04	1188	-6.1463	-84.506	1080.2	5.2528	-331.29	1153.6	102.19	-170.33	813.5	-152.69	-157.86	829.9	167.7	-422.2	859.27	-38.46	-413.28	851.54	66.361	-217.34	1221.8	168.18	-218.92	1083.5	254.85	-238.65	960.17	292.44	-288.98	928.61	220.77	-187.03	840.89	308.31	-173.96	738.6	279.64	-213.43	744.5	340.64	-169.54	685.18	336.17	-203.47	1210.3	-198.05	-176.55	1044.9	-264.08	-195.88	926.03	-280.46	-220.38	900.52	-213.87	-123.28	843.97	-311.36	-68.638	744.19	-293.29	-114.04	734.51	-335.61	-64.589	698.99	-341.22	-198.21	642.51	223.02	-129	490.47	173.27	-114.54	594	186.6	-165.35	564.76	201.78	-130.45	407.8	156.83	-79.207	307.19	113.29	-101.47	140.01	93.069	-133.56	223.21	149.39	-94.419	222.88	102.65	-154.16	74.293	121.53	-131.41	87.801	42.065	-202.52	46.399	67.309	-36.096	54.979	68.142	-70.266	37.999	149.13	5.731	65.97	110.67	-243.35	645.89	-201.15	-257.79	479.55	-149.8	-197.06	567.66	-155.59	-250.53	561.99	-179.83	-247.07	384.78	-109.54	-248.57	285.53	-39.797	-302.41	123.79	-23.59	-297.44	204.26	-91.095	-280.12	203.63	-31.243	-369.78	60.825	-54.731	-415.21	50.326	-10.102	-292.93	19.77	-76.627	-195.77	27.627	-15.958	-347.67	75.567	23.764	-249.89	34.237	8.9516
